<?xml version="1.0" encoding="iso-8859-1"?>
<!-- Generator: Adobe Illustrator 19.0.0, SVG Export Plug-In . SVG Version: 6.00 Build 0)  -->
<svg xmlns="http://www.w3.org/2000/svg" xmlns:xlink="http://www.w3.org/1999/xlink" version="1.1" id="Layer_1" x="0px" y="0px" viewBox="0 0 508.953 508.953" style="enable-background:new 0 0 508.953 508.953;" xml:space="preserve" width="512px" height="512px">
<g transform="translate(1 1)">
	<g>
		<path d="M493.951,143.58c-12.8-22.187-33.28-47.787-58.027-72.533c-46.08-46.933-105.813-87.04-126.293-66.56    c-0.002,0.002-0.004,0.004-0.006,0.006c-24.742,24.746-36.687,56.317-33.274,90.447c0.376,4.759,1.054,9.498,2.007,14.207    l-90.145,90.145c-23.442-9.171-46.077-12.919-67.168-10.485c-21.333,2.56-40.107,14.507-50.347,32.427    c-10.24,18.773-11.093,40.107-2.56,59.733c8.486,19.8,21.476,40.35,37.968,60.655L0.724,494.3    c-2.56,3.413-1.707,8.533,0.853,11.093c1.707,1.707,3.413,2.56,5.973,2.56c1.707,0,3.413-0.853,5.12-1.707L165.819,400.54    c20.125,16.079,40.451,29.11,59.331,37.439c9.387,4.267,17.92,5.973,27.307,5.973c11.093,0,22.187-2.56,31.573-10.24    c17.92-11.093,29.867-29.013,32.427-50.347c2.321-20.12-0.989-40.946-9.258-63.105l91.336-89.838    c8.239,1.827,16.463,2.757,24.589,2.757c27.307,0,54.613-10.24,76.8-33.28c0.822-0.822,1.442-1.745,1.868-2.718    C511.837,187.753,509.227,169.888,493.951,143.58z M324.991,15.58c11.947,0,49.493,18.773,98.987,67.413    c23.893,23.893,43.52,47.787,55.467,69.12c13.009,21.952,12.074,31.503,11.218,33.095c-0.326,0.051-0.652,0.103-0.978,0.185    c-0.921,0.384-2.113,0.545-3.539,0.501c-3.211-0.251-8.277-1.384-15.598-4.637c-0.602-0.271-1.201-0.538-1.824-0.833    c-0.019-0.009-0.039-0.019-0.057-0.027c-2.573-1.219-5.332-2.651-8.244-4.274c-1.028-0.578-2.076-1.178-3.164-1.823    c-20.411-11.906-45.059-31.444-68.878-55.228c-0.081-0.081-0.161-0.158-0.242-0.239c-56.32-55.467-71.68-97.28-66.56-102.4    c0,0,0,0,0,0C322.431,15.58,323.284,15.58,324.991,15.58z M151.764,389.34l-110.08,75.947l75.947-109.227l8.349,8.14    c2.566,2.703,5.187,5.395,7.865,8.074c3.769,3.661,7.579,7.24,11.417,10.727L151.764,389.34z M301.097,385.073    c-1.707,15.36-10.24,29.013-23.893,36.693c-13.653,7.68-29.867,8.533-44.373,1.707c-27.305-11.946-58.022-34.13-86.18-62.287    l-0.013-0.013c-28.157-28.158-50.341-58.876-62.287-86.18c-6.827-14.507-5.973-30.72,1.707-44.373    c7.68-13.653,20.48-22.187,36.693-23.893c4.267-0.853,7.68-0.853,11.093-0.853c12.322,0,25.439,2.384,40.104,8.651    c-0.423,1.383-0.423,2.872,0.003,4.149c5.12,23.04,19.627,45.227,44.373,69.973c16.113,16.113,32.228,28.038,48.633,36.096    c7.612,3.869,15.284,6.912,23.047,9.13c1.707,0,2.56,0,4.267,0C300.244,351.793,302.804,368.86,301.097,385.073z M331.817,271.58    l-37.295,37.295c-1.442,0.426-2.782,1.076-3.665,1.958l-2.56,2.56c-19.627-5.973-38.4-18.773-58.027-38.4    c-20.016-20.85-31.865-38.442-37.969-56.755l90.022-90.871c7.68,21.333,21.333,41.813,38.4,58.88    c17.92,17.067,37.547,30.72,58.027,38.4L331.817,271.58z M392.107,211.811c-20.974-7.161-40.504-19.434-58.583-37.512    c-18.773-19.627-31.573-41.813-37.547-64.853c-0.295-0.885-0.803-1.764-1.435-2.579c-0.924-4.251-1.59-8.516-1.978-12.781    c-1.707-21.333,2.56-41.813,13.653-58.88c9.387,27.307,37.547,64.853,68.267,97.28c31.573,31.573,69.973,60.587,97.28,69.12    C446.909,218.958,418.705,220.327,392.107,211.811z" fill="#00bbd2"/>
	</g>
</g>
<g>
</g>
<g>
</g>
<g>
</g>
<g>
</g>
<g>
</g>
<g>
</g>
<g>
</g>
<g>
</g>
<g>
</g>
<g>
</g>
<g>
</g>
<g>
</g>
<g>
</g>
<g>
</g>
<g>
</g>
</svg>
